# xmcd
#
# Track frame offsets:
#	150
#	11977
#	23057
#	34310
#	44887
#	56270
#	68712
#	79867
#	91467
#	103042
#	116137
#	128125
#	141495
#	154832
#	166160
#	179915
#	192670
#	204152
#	215045
#	227115
#
# Disc length: 3203 seconds
#
# Revision: 2
# Processed by: cddbd v1.5.1PL2 Copyright (c) Steve Scherf et al.
# Submitted via: audiograbber 1.83.01
#
DISCID=2f0c8114
DTITLE=Various Artist - Mod Fave Raves Vol 1
DYEAR=2001
DGENRE=compilation
TTITLE0=Barrett Strong - Money
TTITLE1=The Marvelettes - Too Many Fish In The Sea
TTITLE2=The Velvelettes - Needle In A Haystack
TTITLE3=Earl Van Dyke - 6x6
TTITLE4=Eddie Holland - Leaving Here
TTITLE5=Detroit Spinners - I'll Always Love You
TTITLE6=The Contours - Can You Jerk Like Me
TTITLE7=Martha Reeves and The Vandellas - One Way Out
TTITLE8=Marvin Gaye - One More Heartache
TTITLE9=Gladys Knight and The Pips - I Heard It Through The Grapevine
TTITLE10=The Monitors - One In Your Heart
TTITLE11=Tommy Good - Baby I Miss You
TTITLE12=Earl Van Dyke - All For You
TTITLE13=The Velvelettes - He Was Really Saying Something
TTITLE14=The Contours - First I Look At The Purse
TTITLE15=The Miracles - Going To A Go-Go
TTITLE16=Marvin Gaye - Baby Don't Do It
TTITLE17=Martha Reeves and The Vandellas - Hitch Hike
TTITLE18=Stevie Wonder - Hey Harmonica Man
TTITLE19=Brenda Holloway - Every Little Bit Hurts
EXTD=
EXTT0=
EXTT1=
EXTT2=
EXTT3=
EXTT4=
EXTT5=
EXTT6=
EXTT7=
EXTT8=
EXTT9=
EXTT10=
EXTT11=
EXTT12=
EXTT13=
EXTT14=
EXTT15=
EXTT16=
EXTT17=
EXTT18=
EXTT19=
PLAYORDER=
